<?xml version="1.0" encoding="UTF-8"?>
<svg width="40px" height="40px" viewBox="0 0 40 40" version="1.1" xmlns="http://www.w3.org/2000/svg" xmlns:xlink="http://www.w3.org/1999/xlink">
    <!-- Generator: Sketch 49.2 (51160) - http://www.bohemiancoding.com/sketch -->
    <title>Artboard 2</title>
    <desc>Created with Sketch.</desc>
    <defs></defs>
    <g id="Artboard-2" stroke="none" stroke-width="1" fill="none" fill-rule="evenodd">
        <g id="Group-5-Copy" transform="translate(7.000000, 11.000000)" fill="#333333">
            <path d="M6,10 L10,10 L5,15 L0,10 L4,10 C4,4.4771525 8.4771525,0 14,0 C19.5228475,0 24,4.4771525 24,10 C24,15.5228475 19.5228475,20 14,20 C11.2385763,20 8.73857625,18.8807119 6.92893219,17.0710678 L8.34314575,15.6568542 C9.790861,17.1045695 11.790861,18 14,18 C18.418278,18 22,14.418278 22,10 C22,5.581722 18.418278,2 14,2 C9.581722,2 6,5.581722 6,10 Z" id="Combined-Shape"></path>
            <polygon id="Path-5" fill-rule="nonzero" points="15 5 13 5 13 10.4125151 16.7908448 14.2254195 18.2091552 12.8153147 15 9.58748486"></polygon>
        </g>
    </g>
</svg>