<?xml version="1.0" encoding="UTF-8"?>
<svg width="40px" height="36px" viewBox="0 0 40 36" version="1.1" xmlns="http://www.w3.org/2000/svg" xmlns:xlink="http://www.w3.org/1999/xlink">
    <!-- Generator: Sketch 49.2 (51160) - http://www.bohemiancoding.com/sketch -->
    <title>Artboard 3</title>
    <desc>Created with Sketch.</desc>
    <defs></defs>
    <g id="Artboard-3" stroke="none" stroke-width="1" fill="none" fill-rule="evenodd">
        <path d="M26.1943982,23.0730779 L32.2463203,29.125 L30.125,31.2463203 L24.0730779,25.1943982 C22.5076214,26.3302311 20.5820272,27 18.5,27 C13.2532949,27 9,22.7467051 9,17.5 C9,12.2532949 13.2532949,8 18.5,8 C23.7467051,8 28,12.2532949 28,17.5 C28,19.5820272 27.3302311,21.5076214 26.1943982,23.0730779 Z M18.5,24 C22.0898509,24 25,21.0898509 25,17.5 C25,13.9101491 22.0898509,11 18.5,11 C14.9101491,11 12,13.9101491 12,17.5 C12,21.0898509 14.9101491,24 18.5,24 Z" id="Combined-Shape" fill="#333333" fill-rule="nonzero"></path>
    </g>
</svg>